<svg id="Layer_3" data-name="Layer 3" xmlns="http://www.w3.org/2000/svg" viewBox="0 0 78.41 88.76"><defs><style>.cls-1{fill:#0a75b8;}.cls-2{fill:#25a8dd;}.cls-3{fill:#fff;}</style></defs><polygon class="cls-1" points="39.2 0 0 0 7.15 79.89 39.2 88.76 71.25 79.89 78.41 0 39.2 0"/><polygon class="cls-2" points="39.2 6.63 71.15 6.63 65.24 74.58 39.2 82.04 39.2 6.63"/><polygon class="cls-3" points="14.71 16.05 63.69 16.05 62.76 25.85 39.9 35.96 61.98 35.96 59.19 65.81 39.2 71.72 19.22 65.97 17.67 50.57 27.31 50.73 28.24 58.19 39.2 61.3 49.85 58.35 50.94 45.6 17.04 45.75 16.42 35.8 39.9 25.85 15.49 26 14.71 16.05"/></svg>