<svg id="Layer_4" data-name="Layer 4" xmlns="http://www.w3.org/2000/svg" viewBox="0 0 78.41 88.76"><defs><style>.cls-1{fill:#dab92b;}.cls-2{fill:#fcd93a;}.cls-3{fill:#fff;}</style></defs><polygon class="cls-1" points="39.2 0 0 0 7.15 79.89 39.2 88.76 71.25 79.89 78.41 0 39.2 0"/><polygon class="cls-2" points="39.2 6.63 71.15 6.63 65.24 74.58 39.2 82.04 39.2 6.63"/><polygon class="cls-3" points="27.51 16.23 36.68 16.23 36.68 71.28 18.64 66.31 17.25 50.76 25.49 50.76 25.95 58.06 28.91 59 27.51 16.23"/><polygon class="cls-3" points="41.04 16.23 63.43 16.23 62.65 25.88 50.83 25.88 50.83 35.98 61.56 35.98 59.08 66.31 41.04 71.28 41.04 61.02 49.74 58.69 50.83 45.78 41.04 45.94 41.04 16.23"/></svg>